<svg id="Layer_1" data-name="Layer 1" xmlns="http://www.w3.org/2000/svg" xmlns:xlink="http://www.w3.org/1999/xlink" viewBox="0 0 302.2 263.22"><defs><style>.cls-1,.cls-27,.cls-6{fill:none;}.cls-2{opacity:0.1;}.cls-2,.cls-3,.cls-4,.cls-7{isolation:isolate;}.cls-3{fill:#57397d;}.cls-4{fill:#462e64;}.cls-5{fill:#3c3c75;}.cls-6{stroke:#ff4f5b;}.cls-27,.cls-6{stroke-miterlimit:10;}.cls-7{fill:#0d0d33;opacity:0.5;}.cls-8{fill:url(#linear-gradient);}.cls-9{fill:url(#linear-gradient-2);}.cls-10{fill:#c1c7d0;}.cls-11{fill:#dfe1e5;}.cls-12{fill:url(#linear-gradient-3);}.cls-13{fill:url(#linear-gradient-4);}.cls-14{fill:#979797;}.cls-15{fill:#cbcaca;}.cls-16{fill-opacity:0.2;}.cls-17,.cls-27{fill-rule:evenodd;}.cls-17{fill:url(#linear-gradient-5);}.cls-18{fill:#ec5d60;}.cls-19{fill:url(#linear-gradient-6);}.cls-20{fill:url(#linear-gradient-7);}.cls-21{fill:url(#linear-gradient-8);}.cls-22{fill:url(#linear-gradient-9);}.cls-23{fill:#fff;}.cls-24{fill:#636ec2;}.cls-25{fill:#82bc5c;}.cls-26{fill:#4ca997;}.cls-27{stroke:#fff;stroke-width:0.5px;opacity:0.4;}.cls-28{fill:#55526e;}.cls-29{clip-path:url(#clip-path);}.cls-30{fill:#303045;}</style><linearGradient id="linear-gradient" x1="-2135.38" y1="2025.92" x2="-2123.58" y2="2025.92" gradientTransform="translate(-2093.33 2253.22) rotate(180)" gradientUnits="userSpaceOnUse"><stop offset="0" stop-color="#ff7154"/><stop offset="1" stop-color="#ffaf50"/></linearGradient><linearGradient id="linear-gradient-2" x1="-2181.8" y1="2016.94" x2="-2170.02" y2="2016.94" xlink:href="#linear-gradient"/><linearGradient id="linear-gradient-3" x1="-2265.5" y1="2149.89" x2="-2184.8" y2="2149.89" gradientTransform="translate(-2093.33 2253.22) rotate(180)" gradientUnits="userSpaceOnUse"><stop offset="0" stop-color="#636ec2"/><stop offset="1" stop-color="#d2d5ea"/></linearGradient><linearGradient id="linear-gradient-4" x1="-2244.77" y1="2207.21" x2="-2205.17" y2="2207.21" xlink:href="#linear-gradient"/><linearGradient id="linear-gradient-5" x1="-2241.94" y1="2240.51" x2="-2206.65" y2="2223.25" gradientTransform="translate(-2093.33 2253.22) rotate(180)" gradientUnits="userSpaceOnUse"><stop offset="0" stop-color="#452f2f"/><stop offset="1" stop-color="#26223b"/></linearGradient><linearGradient id="linear-gradient-6" x1="-2227.02" y1="2224.85" x2="-2217.14" y2="2224.85" xlink:href="#linear-gradient-5"/><linearGradient id="linear-gradient-7" x1="-2210.82" y1="2225.22" x2="-2204.57" y2="2225.22" xlink:href="#linear-gradient-5"/><linearGradient id="linear-gradient-8" x1="-2222.71" y1="2217.53" x2="-2218.89" y2="2217.53" xlink:href="#linear-gradient-5"/><linearGradient id="linear-gradient-9" x1="-2209.77" y1="2217.99" x2="-2207.7" y2="2217.99" xlink:href="#linear-gradient-5"/><clipPath id="clip-path"><path class="cls-1" d="M228.36,195h23.83v15.59s0,9-7,9H234.33a5.27,5.27,0,0,1-4.55-2.51,12.44,12.44,0,0,1-1.42-6.44Z"/></clipPath></defs><path class="cls-2" d="M94.35,200.81S64.88,200,64.88,218.13c-5.89,39.18,108,14.08,139.38,14.08s44.63,1.84,85,1.84-26.59-25.5-26.59-25.5Z"/><path class="cls-3" d="M258.3,132.41S250,86.08,212.79,86.08,166,97,147.67,97,72.5,86.08,72.5,86.08,43.39,130.85,35.74,138.4s20.73,74,88,80.51S223.39,216,242,194.78C269.54,163.46,258.3,132.41,258.3,132.41Z"/><path class="cls-2" d="M35.83,138.31s97.93,48.09,169.78-13c26.53-22.57-14.65-38.6-33.53-33.53-.46.09-.92.28-1.29.37-8.11,2.49-14.65,4.7-23,4.7C129.43,96.86,72.59,86,72.59,86S43.39,130.76,35.83,138.31Z"/><path class="cls-4" d="M135,219.84c59.79,4.42,89.54-5.16,107-25.06,27.46-31.23,16.22-62.37,16.22-62.37s-5.53-31.22-28.1-42.37c8.29,13.36,16.12,31.87,16.12,54C246.32,203.16,175.76,216.89,135,219.84Z"/><path class="cls-5" d="M27.36,120.07c2.95-2.95,6.26-7.83,19.71-6.91L49.65,121l37.86,2.77c3.78,1.38,7.83,2.94,12.07,4.69H101c4.79,6.36,9.49,8.57,9.49,8.57l44.77,3A98.11,98.11,0,0,1,127,160.7a65.7,65.7,0,0,1-28.28,6.9c.83,6.73-4.88,72-13,64.58a49.54,49.54,0,0,1-11.33-3.87c-.18-12-1.2-54-1.38-77.56V158c-5.9,0-25.24-15.2-25.24-15.2L43.2,221.59a5.48,5.48,0,0,1-1.1.92,10.82,10.82,0,0,1-3.69,1.19,21.42,21.42,0,0,1-4.23.19,5.44,5.44,0,0,0-1.57-2h0c-1.57-1.29-3.78-1.93-4.33-.46C25.52,211.73,15.66,129.28,27.36,120.07Zm15.38,9.58Z"/><path class="cls-6" d="M85.67,232.46v-.37"/><path class="cls-7" d="M35.83,175.25l2.49,46.61.09,1.75a10.69,10.69,0,0,0,3.69-1.2,3.48,3.48,0,0,0,1.1-.92l4.61-78.76s19.34,15.2,25.24,15.2v-21s-22.66-14.65-30.31-7.28S35.83,175.25,35.83,175.25Z"/><path class="cls-8" d="M30.21,221.77v11H42V222.41a10.69,10.69,0,0,1-3.69,1.2,21.48,21.48,0,0,1-4.24.19h0c-.09-.19-.09-.28-.18-.37a7.27,7.27,0,0,0-1.38-1.66H30.21Z"/><path class="cls-7" d="M85.67,232.09c8.11,7.46,13.73-57.85,13-64.58a65.71,65.71,0,0,0,28.28-6.91c-.65.56-35.74-23.12-36.85-6.81C85.58,179.3,86.22,206.29,85.67,232.09Z"/><path class="cls-9" d="M76.73,229.23v2.3a6.15,6.15,0,0,1,2.12,2.21c1.38,2.49,1.75,6.91,2.86,8.11.83.83,4.79,1.29,6.72,1.48V232.55h-.55l-2.21-.28c-.28-.09-.55-.09-.83-.18s-.46-.1-.74-.19-.46-.09-.73-.18c-.1,0-.19,0-.19-.09-.18,0-.27-.1-.46-.1s-.18,0-.18-.09c-.19-.09-.46-.09-.65-.18l-.83-.28c-.09,0-.09,0-.18-.09-.37-.09-.83-.28-1.2-.37-.83-.28-1.56-.55-2.21-.83a2.37,2.37,0,0,0-.74-.46Z"/><path class="cls-10" d="M49.93,263.22c6.63,0,45.23-1.29,43.75-6.91-.18-1.1-.46-2.3-.73-3.4,1.47,5.61-41.82,7.27-43.67,7.27-1.66,0-4.14-3-4.42-3.41C44.59,260,46,263.22,49.93,263.22Z"/><path class="cls-11" d="M44.86,256.77c.28.37,2.77,3.41,4.42,3.41,1.85,0,45.14-1.66,43.67-7.27h0a64.28,64.28,0,0,0-3.41-9.68,9,9,0,0,1-1.11-.09c-1.93-.18-5.89-.64-6.72-1.47-1.2-1.11-1.57-5.53-2.86-8.11A27.37,27.37,0,0,1,76.73,239a9,9,0,0,1-3.22,3.86c-3.32,1.94-7.28-.73-7.28-.73-7,4.6-17.22,7.18-19.16,9.12A9.7,9.7,0,0,0,44.86,256.77Z"/><path class="cls-10" d="M66.23,242.31s4,2.67,7.28.74a10.48,10.48,0,0,0,3.22-3.87,27.37,27.37,0,0,0,2.12-5.44,7.08,7.08,0,0,0-2.12-2.21c-1.75-1.1-3.68-1.19-3.68.93C73,236.51,70.1,239.73,66.23,242.31Z"/><path class="cls-10" d="M5.07,252.91c6.63,0,45.23-1.29,43.75-6.91-.18-1.11-.37-2.21-.64-3.23.64,5.53-41.92,7.1-43.67,7.1s-4.14-3-4.42-3.41C-.28,249.68,1.11,252.91,5.07,252.91Z"/><path class="cls-10" d="M21.37,232s4,2.68,7.28.74,5.25-9.12,5.34-9.3h0c-.18-.28-.27-.46-.46-.74l-.18-.18c-.1-.1-.19-.19-.19-.28l-.18-.18c-.09-.1-.19-.19-.28-.28h0c-1.56-1.29-3.77-1.93-4.33-.46h0a1.86,1.86,0,0,0-.18.83c0,3.87-2.58,6.91-6.08,9.39Z"/><path class="cls-11" d="M0,246.46c.28.37,2.76,3.41,4.42,3.41s44.31-1.57,43.67-7.1h0A62.85,62.85,0,0,0,44.68,233s-1.2-.09-2.67-.28c-2-.18-4.52-.64-5.16-1.29-1.11-1.1-1.48-5.06-2.67-7.64h0c-.1-.1-.1-.28-.19-.37h0c-.09.18-2,7.46-5.34,9.3s-7.28-.74-7.28-.74c-7,4.61-17.22,7.19-19.16,9.12A8.62,8.62,0,0,0,0,246.46Z"/><path class="cls-12" d="M91.47,94.55c0,13.27,3,22.67,6.54,29.21h0a2.52,2.52,0,0,1,.37.73,25.25,25.25,0,0,0,2.58,3.87c4.79,6.36,9.49,8.57,9.49,8.57l44.77,3s16.95-6.82,16.95-38.51c0-24.78-28.28-32.88-32.89-34.08-.37-.09-.64-.18-.64-.18a78.32,78.32,0,0,0-18.61.09c-9.12,1.19-19.25,4.42-24.69,12.62A27,27,0,0,0,91.47,94.55Z"/><path class="cls-13" d="M120,67.56l3.78-4.79c-8.75-.36-11.33-15.56-11.33-15.56s-5.07-35,20.17-35c12.44,0,18.79,10,18.79,23.58,0,8.39-5,15.11-11.42,19.9l-.74,13c2.86,1.2,4.7,2.85,4.7,4.61,0,3.59-7.18,6.54-16,6.54s-16-2.95-16-6.54C111.83,70.88,115.15,68.76,120,67.56Z"/><polygon class="cls-14" points="131.64 138.31 110.45 125.32 81.89 123.3 110.45 136.93 131.64 138.31"/><path class="cls-15" d="M36.2,79.91l10.87,33.16,2.58,7.83,37.86,2.76h0l11,.83,12.07.92L99,83a4,4,0,0,0-3.5-3h-.19L39.15,76.32A2.7,2.7,0,0,0,36.2,79.91Z"/><path class="cls-16" d="M140,55.68s-10.32,7.09-16.21,7.09L122.06,65c5.89,3.87,17.87-7.92,18-8.93Z"/><path class="cls-17" d="M106.49,13.67l3-1-3-5.43,6.08-1.48L109.71,0C134-.7,144.44,8.7,144.44,8.7h0l.83.55a22.88,22.88,0,0,1,9.3,23.4c-.73,3.59-3.47,8.22-4.76,11.17,0,0,1.63-12.92-3.71-10.62,0,0-3.5,4-4.15,7.83,0,0-2.58-.18-1.93-4.88,0,0,0-9.86-9.21-11.14s-11,1-15-3l-1.47,11.14s-7.74-5.53-5.53-13.54h0A32.3,32.3,0,0,1,106.49,13.67Z"/><path class="cls-18" d="M127.86,49.32s-1.93.28-4,.47-4.24.18-4.61-.47c0,0,.55,6.54,4.33,5.07C123.53,54.39,126,53.56,127.86,49.32Z"/><path class="cls-19" d="M123.81,27.31s6.17,1.75,9.85,1.75C133.66,29.06,128.23,30.62,123.81,27.31Z"/><path class="cls-20" d="M117.45,26.57a37.71,37.71,0,0,1-6.26,2.76C111.28,29.33,114.59,30.16,117.45,26.57Z"/><ellipse class="cls-21" cx="127.49" cy="35.69" rx="1.93" ry="2.12"/><ellipse class="cls-22" cx="115.42" cy="35.23" rx="1.01" ry="1.93"/><g id="Stroke-10"><rect class="cls-23" x="132.83" y="34.22" width="10.22" height="1" transform="translate(-4.08 26.75) rotate(-10.92)"/></g><g id="Stroke-12"><path class="cls-23" d="M127.86,42.64c-3.07,0-5.57-3.12-5.57-7s2.5-6.95,5.57-6.95,5.57,3.12,5.57,7S130.93,42.64,127.86,42.64Zm0-12.9c-2.52,0-4.57,2.67-4.57,5.95s2,6,4.57,6,4.57-2.67,4.57-6S130.38,29.74,127.86,29.74Z"/></g><g id="Stroke-14"><path class="cls-23" d="M114.78,42.64c-2.24,0-4-3-4-7s1.86-6.95,4-6.95,4,3.05,4,7S117,42.64,114.78,42.64Zm0-12.9c-1.38,0-2.91,2.4-3,6,0,3.22,1.37,5.94,3,5.94s3-2.78,3-6S116.41,29.74,114.78,29.74Z"/></g><path class="cls-24" d="M114.45,117.13l-.18-1c7.21-.68,7.21-.68,21.24-4.85l.78-.24c14.29-4.25,13.38-21.32,13.37-21.49l1-.06c0,.18,1,18-14.07,22.51l-.79.23C121.67,116.46,121.67,116.46,114.45,117.13Z"/><path class="cls-24" d="M120.16,127.66h-1l0-1c.18,0,17.44.32,32.17-3.92,14.52-4.18,19.34-20.81,19.39-21l1,.27c0,.17-5,17.33-20.08,21.66C138.79,127.4,124,127.66,120.16,127.66Z"/><path class="cls-25" d="M239.88,195s-11-40.37-29.56-42.76a2.49,2.49,0,0,0-2.82,2.54,19,19,0,0,0,3.6,10.16,70.1,70.1,0,0,0,10.55,12.63S233.8,189.23,236.2,195Z"/><path class="cls-26" d="M239.58,195s-9.28-24.14-12.48-29.58c0,0-10.17-21.81-6.61-31.17a3.15,3.15,0,0,1,4.67-1.49c2.55,1.66,6.49,6,11.38,17.31,0,0,6.55,16.47,6.55,44.93Z"/><path class="cls-25" d="M243.47,195s11-40.37,29.55-42.76a2.5,2.5,0,0,1,2.83,2.54,19.12,19.12,0,0,1-3.6,10.16,70.61,70.61,0,0,1-10.55,12.63S249.55,189.23,247.15,195Z"/><path class="cls-27" d="M275.09,153s-18.39,15.19-30.86,42.69"/><path class="cls-27" d="M207.9,152.61s18.38,15.19,30.86,42.69"/><path class="cls-27" d="M222,131.67s16.47,29.26,20,63.63"/><path class="cls-28" d="M228.36,195h23.83v15.59s0,9-7,9H234.33a5.27,5.27,0,0,1-4.55-2.51,12.44,12.44,0,0,1-1.42-6.44Z"/><g class="cls-29"><path class="cls-30" d="M248.11,194.42s3.6,18-7.2,25.42h13.51v-25Z"/></g></svg>